<svg xmlns="http://www.w3.org/2000/svg" viewBox="0 0 800 200" width="800" height="200">
  <defs>
    <linearGradient id="g1" x1="0%" y1="0%" x2="100%" y2="100%">
      <stop offset="0%" style="stop-color:#059669" />
      <stop offset="100%" style="stop-color:#0d9488" />
    </linearGradient>
    <linearGradient id="g2" x1="0%" y1="0%" x2="100%" y2="100%">
      <stop offset="0%" style="stop-color:#34d399" />
      <stop offset="100%" style="stop-color:#2dd4bf" />
    </linearGradient>
    <linearGradient id="g3" x1="0%" y1="100%" x2="100%" y2="0%">
      <stop offset="0%" style="stop-color:#047857" />
      <stop offset="100%" style="stop-color:#0f766e" />
    </linearGradient>
  </defs>

  <!-- Icon: 2x2 module grid -->
  <rect x="24" y="24" width="68" height="68" rx="12" fill="url(#g1)" />
  <rect x="108" y="24" width="68" height="68" rx="12" fill="url(#g2)" />
  <rect x="24" y="108" width="68" height="68" rx="12" fill="url(#g2)" />
  <rect x="108" y="108" width="68" height="68" rx="12" fill="url(#g3)" />

  <!-- Connector dots -->
  <circle cx="100" cy="58" r="3" fill="#a7f3d0" />
  <circle cx="100" cy="142" r="3" fill="#a7f3d0" />
  <circle cx="58" cy="100" r="3" fill="#a7f3d0" />
  <circle cx="142" cy="100" r="3" fill="#a7f3d0" />

  <!-- Dashed connectors -->
  <line x1="92" y1="58" x2="108" y2="58" stroke="#a7f3d0" stroke-width="2" stroke-dasharray="4,3" />
  <line x1="92" y1="142" x2="108" y2="142" stroke="#a7f3d0" stroke-width="2" stroke-dasharray="4,3" />
  <line x1="58" y1="92" x2="58" y2="108" stroke="#a7f3d0" stroke-width="2" stroke-dasharray="4,3" />
  <line x1="142" y1="92" x2="142" y2="108" stroke="#a7f3d0" stroke-width="2" stroke-dasharray="4,3" />

  <!-- Subtle highlight bars -->
  <rect x="36" y="36" width="44" height="4" rx="2" fill="white" opacity="0.3" />
  <rect x="120" y="164" width="44" height="4" rx="2" fill="white" opacity="0.3" />

  <!-- Wordmark -->
  <text x="220" y="118" font-family="system-ui, -apple-system, 'Segoe UI', sans-serif" font-size="64" font-weight="700" fill="#022c22" letter-spacing="-2">
    Simple<tspan fill="url(#g1)">Module</tspan>
  </text>
</svg>
